<mxfile host="app.diagrams.net" modified="2020-04-02T09:05:48.994Z" agent="5.0 (X11)" etag="q_M8LS29oPS5VHeMbxdC" version="12.9.6" type="github">
  <diagram id="C5RBs43oDa-KdzZeNtuy" name="Page-1">
    <mxGraphModel dx="462" dy="777" grid="1" gridSize="10" guides="1" tooltips="1" connect="1" arrows="1" fold="1" page="1" pageScale="1" pageWidth="827" pageHeight="1169" math="0" shadow="0">
      <root>
        <mxCell id="WIyWlLk6GJQsqaUBKTNV-0" />
        <mxCell id="WIyWlLk6GJQsqaUBKTNV-1" parent="WIyWlLk6GJQsqaUBKTNV-0" />
        <mxCell id="ttMWoVvg3eshkosIJ3gn-0" value="" style="rounded=0;whiteSpace=wrap;html=1;fillColor=#ffffff;" vertex="1" parent="WIyWlLk6GJQsqaUBKTNV-1">
          <mxGeometry x="70" y="80" width="670" height="540" as="geometry" />
        </mxCell>
        <mxCell id="ttMWoVvg3eshkosIJ3gn-1" value="&lt;div style=&quot;font-size: 20px&quot;&gt;&lt;h1&gt;&lt;u&gt;&lt;font style=&quot;font-size: 20px&quot;&gt;Model&lt;/font&gt;&lt;/u&gt;&lt;/h1&gt;&lt;/div&gt;&lt;div style=&quot;font-size: 20px&quot;&gt;&lt;h1&gt;&lt;u&gt;&lt;font style=&quot;font-size: 20px&quot;&gt;&lt;br&gt;&lt;/font&gt;&lt;/u&gt;&lt;/h1&gt;&lt;/div&gt;" style="text;html=1;strokeColor=none;fillColor=none;align=center;verticalAlign=middle;whiteSpace=wrap;rounded=0;" vertex="1" parent="WIyWlLk6GJQsqaUBKTNV-1">
          <mxGeometry x="374" y="140" width="36" as="geometry" />
        </mxCell>
        <mxCell id="ttMWoVvg3eshkosIJ3gn-2" value="ReadFile" style="rounded=0;whiteSpace=wrap;html=1;fillColor=#ffffff;" vertex="1" parent="WIyWlLk6GJQsqaUBKTNV-1">
          <mxGeometry x="90" y="170" width="120" height="60" as="geometry" />
        </mxCell>
        <mxCell id="ttMWoVvg3eshkosIJ3gn-3" value="WriteFile" style="rounded=0;whiteSpace=wrap;html=1;fillColor=#ffffff;" vertex="1" parent="WIyWlLk6GJQsqaUBKTNV-1">
          <mxGeometry x="90" y="250" width="120" height="60" as="geometry" />
        </mxCell>
        <mxCell id="ttMWoVvg3eshkosIJ3gn-4" value="ImageOperations" style="rounded=0;whiteSpace=wrap;html=1;fillColor=#ffffff;" vertex="1" parent="WIyWlLk6GJQsqaUBKTNV-1">
          <mxGeometry x="230" y="170" width="120" height="60" as="geometry" />
        </mxCell>
      </root>
    </mxGraphModel>
  </diagram>
</mxfile>
